<svg width="60" height="56" fill="none" xmlns="http://www.w3.org/2000/svg"><path d="M26.25 18.667h7.5M16.9 51.333h26.2c6.9 0 9.65-3.943 9.975-8.75l1.3-19.273a8.222 8.222 0 00-.536-3.52 8.68 8.68 0 00-1.99-3.03 9.413 9.413 0 00-3.118-2.043A9.959 9.959 0 0045 14c-1.526 0-2.926-.817-3.626-2.077l-1.8-3.383c-1.15-2.123-4.15-3.873-6.7-3.873H27.15c-2.575 0-5.575 1.75-6.725 3.873l-1.8 3.383C17.925 13.183 16.525 14 15 14c-5.425 0-9.725 4.27-9.375 9.31l1.3 19.273c.3 4.807 3.075 8.75 9.975 8.75z" stroke="#fff" stroke-width="1.5" stroke-linecap="round" stroke-linejoin="round"/><path d="M30 42c4.475 0 8.125-3.407 8.125-7.583 0-4.177-3.65-7.584-8.125-7.584s-8.125 3.407-8.125 7.584C21.875 38.593 25.525 42 30 42z" stroke="#fff" stroke-width="1.5" stroke-linecap="round" stroke-linejoin="round"/></svg>