<svg width="23" height="23" fill="none" xmlns="http://www.w3.org/2000/svg"><path d="M11.5 15.077c2.116 0 3.833-1.674 3.833-3.74 0-2.065-1.717-3.739-3.834-3.739s-3.833 1.674-3.833 3.74c0 2.065 1.716 3.74 3.833 3.74z" stroke="#A8A8A8" stroke-width="2" stroke-linecap="round" stroke-linejoin="round"/><path d="M15.333 11.338v1.402c0 .62.253 1.214.702 1.652.45.439 1.059.685 1.694.685.636 0 1.245-.246 1.694-.684.45-.439.702-1.033.702-1.653v-1.402a8.277 8.277 0 00-1.696-5.021 8.626 8.626 0 00-4.431-3.043 8.83 8.83 0 00-5.418.136 8.596 8.596 0 00-4.264 3.26 8.26 8.26 0 00-1.429 5.1 8.299 8.299 0 001.972 4.924A8.657 8.657 0 009.452 19.5c1.8.43 3.695.281 5.402-.422" stroke="#A8A8A8" stroke-width="2" stroke-linecap="round" stroke-linejoin="round"/></svg>