<svg width="118" height="89" fill="none" xmlns="http://www.w3.org/2000/svg"><circle cx="60.171" cy="43.96" r="43.96" fill="url(#paint0_linear_35_83)"/><circle cx="60.178" cy="45.041" r="43.96" fill="#A6B0D4"/><path d="M52.922 33.517h64.872L103.71 51.442l14.084 17.925H52.922L58.5 51.442l-5.578-17.925z" fill="#1F3A95"/><path d="M0 22.42h64.873l5.548 16.645-5.549 19.206H0l4.268-17.072L0 22.42z" fill="#F32613"/><path d="M17.407 37.937l1.462-8.804h6.138l-.292 1.728h-4.01l-.293 1.805h3.697l-.292 1.733H20.12l-.293 1.81h4.011l-.292 1.727h-6.139zm9.376 0h-2.287l4.432-8.804h2.833l1.509 8.804h-2.287l-.968-6.586h-.068l-3.164 6.586zm.275-3.465h4.78l-.275 1.616h-4.78l.275-1.616zm12.66-2.683c.024-.324-.062-.574-.257-.752-.192-.178-.496-.267-.911-.267-.275 0-.51.036-.705.108a1.08 1.08 0 00-.46.292.846.846 0 00-.211.43.597.597 0 00.022.344c.04.1.11.19.21.267.103.077.23.144.383.202.154.057.328.107.52.15l.722.172c.419.095.781.22 1.088.378.31.155.56.343.752.563.192.218.324.469.395.753a2.3 2.3 0 01.018.954 2.834 2.834 0 01-.658 1.431c-.344.399-.794.704-1.35.916-.553.212-1.196.318-1.93.318s-1.357-.11-1.87-.33c-.51-.224-.88-.561-1.11-1.01-.228-.45-.29-1.018-.184-1.703h2.033c-.031.283.005.52.108.709.106.19.27.333.49.43.22.097.487.146.8.146.286 0 .537-.039.752-.116.218-.077.391-.185.52-.322a.873.873 0 00.24-.473.553.553 0 00-.081-.426c-.08-.12-.218-.225-.413-.314a3.94 3.94 0 00-.756-.24l-.882-.215c-.727-.178-1.28-.462-1.655-.851-.372-.39-.504-.919-.395-1.587a2.838 2.838 0 01.68-1.435c.363-.41.823-.729 1.379-.955a4.815 4.815 0 011.844-.344c.682 0 1.256.116 1.72.348.467.23.804.553 1.01.972.21.415.27.901.18 1.457H39.72zm3.242-2.656h2.377l1.247 3.684h.09l2.464-3.684h2.377l-4.192 5.863-.49 2.94h-2.115l.495-2.94-2.253-5.863zM10.352 51.346l1.386-8.35h5.822l-.277 1.64h-3.804l-.277 1.711h3.506l-.277 1.643h-3.506l-.278 1.717h3.804l-.277 1.639h-5.822zm15.577-8.35l-1.386 8.35h-1.712l-2.515-4.82h-.057l-.803 4.82h-2.018l1.386-8.35h1.736l2.495 4.81h.07l.79-4.81h2.014zm6.296 2.728a1.399 1.399 0 00-.114-.453.993.993 0 00-.245-.338 1.002 1.002 0 00-.383-.208 1.735 1.735 0 00-.53-.074 2.21 2.21 0 00-1.117.294 2.487 2.487 0 00-.868.856c-.237.372-.399.825-.486 1.358-.087.535-.09.992-.008 1.37.084.377.253.665.506.864.253.198.587.297 1.003.297.372 0 .7-.06.986-.18a1.74 1.74 0 00.693-.517c.18-.223.292-.485.339-.787l.37.045h-2.03l.245-1.471h3.596l-.184 1.104c-.122.748-.386 1.388-.79 1.92a4.014 4.014 0 01-1.51 1.228 4.55 4.55 0 01-1.976.428c-.794 0-1.464-.173-2.01-.518a2.827 2.827 0 01-1.166-1.476c-.231-.641-.275-1.402-.13-2.283a5.71 5.71 0 01.607-1.822 4.932 4.932 0 011.076-1.354 4.55 4.55 0 011.415-.84 4.623 4.623 0 011.61-.285c.481 0 .919.07 1.313.208.394.139.73.334 1.01.587.28.253.491.553.633.901.144.348.206.73.187 1.146h-2.042zm2.388 5.622l1.386-8.35h2.018l-1.11 6.71h3.474l-.277 1.64h-5.491zm9.94-8.35l-1.386 8.35h-2.018l1.386-8.35h2.018zm5.355 2.52c.022-.307-.06-.545-.244-.714-.182-.168-.47-.252-.864-.252-.261 0-.484.034-.669.102-.185.065-.33.157-.436.277a.802.802 0 00-.2.407.567.567 0 00.02.327.601.601 0 00.2.252c.098.074.219.138.363.192.147.054.311.102.493.143l.685.163c.397.09.74.209 1.032.358.293.147.53.325.713.535.182.206.307.444.375.713.068.269.073.57.016.905-.087.527-.295.98-.623 1.357-.326.378-.753.668-1.28.869-.525.2-1.135.302-1.83.302-.697 0-1.288-.105-1.774-.314-.484-.212-.835-.532-1.052-.959-.218-.426-.276-.964-.175-1.614h1.928c-.03.27.004.493.102.673.1.18.255.315.465.407.209.093.462.14.758.14.272 0 .51-.038.713-.111.207-.073.371-.175.494-.306a.828.828 0 00.228-.448.524.524 0 00-.078-.404c-.076-.114-.206-.213-.391-.297a3.744 3.744 0 00-.718-.229l-.835-.204c-.69-.168-1.214-.437-1.57-.807-.353-.37-.478-.87-.375-1.504.087-.52.302-.973.644-1.362.345-.388.782-.69 1.309-.905a4.565 4.565 0 011.749-.326c.647 0 1.19.11 1.63.33.444.218.763.525.959.922.198.394.255.855.17 1.382h-1.932zm2.104 5.83l1.386-8.35h2.018l-.554 3.351h3.29l.554-3.35h2.014l-1.386 8.349H57.32l.554-3.356h-3.29l-.554 3.355h-2.018z" fill="#fff"/><path d="M96.03 48.241l-10.67-4.268-10.67 4.268 10.67 4.268 10.67-4.268zm0 0v6.402" stroke="#fff" stroke-width="1.707" stroke-linecap="round" stroke-linejoin="round"/><path d="M78.957 49.948v5.762c0 .849.675 1.663 1.875 2.263 1.2.6 2.829.938 4.527.938s3.326-.337 4.527-.938c1.2-.6 1.875-1.414 1.875-2.263v-5.762" stroke="#fff" stroke-width="1.707" stroke-linecap="round" stroke-linejoin="round"/><defs><linearGradient id="paint0_linear_35_83" x1="60.171" y1="0" x2="60.171" y2="87.919" gradientUnits="userSpaceOnUse"><stop stop-color="#BAC5ED"/><stop offset="1" stop-color="#8B94B2"/></linearGradient></defs></svg>