<svg width="114" height="92" viewBox="0 0 114 92" fill="none" xmlns="http://www.w3.org/2000/svg">
    <ellipse cx="56" cy="46" rx="44" ry="46" fill="url(#paint0_linear_114_918)"/>
    <ellipse cx="56" cy="46.5" rx="44" ry="43.5" fill="#A6B0D4"/>
    <path d="M48.9219 38.02H113.794L99.7102 58.3536L113.794 78.6873H48.9219L54.4996 58.3536L48.9219 38.02Z" fill="#1F3A95"/>
    <path d="M0 27.626H58.9576L64 44.8045L58.9576 64.626H0L3.87879 47.0069L0 27.626Z" fill="#F32613"/>
    <path d="M16.3302 43.626L17.8472 34.4883H23.7902L23.5582 35.8759H19.2705L18.86 38.3567H22.8399L22.6078 39.7443H18.628L18.2175 42.2384H22.5409L22.3089 43.626H16.3302ZM32.9881 34.4883L31.4711 43.626H29.9987L26.7283 37.4018H26.6569L25.6173 43.626H23.962L25.479 34.4883H26.9603L30.2263 40.7169H30.3111L31.3417 34.4883H32.9881ZM40.4225 37.4063C40.3898 37.1654 40.3303 36.9497 40.244 36.7593C40.1578 36.566 40.0417 36.4024 39.896 36.2686C39.7502 36.1317 39.5733 36.0276 39.3651 35.9562C39.1568 35.8848 38.9144 35.8492 38.6378 35.8492C38.147 35.8492 37.6815 35.9726 37.2413 36.2195C36.801 36.4664 36.4248 36.8292 36.1124 37.3081C35.8001 37.7841 35.5874 38.3641 35.4744 39.0482C35.3614 39.7383 35.3673 40.3228 35.4923 40.8017C35.6172 41.2806 35.8462 41.645 36.1794 41.8948C36.5155 42.1417 36.9379 42.2651 37.4465 42.2651C37.9135 42.2651 38.3374 42.1759 38.7181 41.9974C39.0988 41.819 39.4141 41.5661 39.664 41.2389C39.9168 40.9088 40.0774 40.5221 40.1459 40.0789L40.5117 40.1369H38.0265L38.2496 38.843H41.9573L41.7699 39.9406C41.642 40.7258 41.3639 41.404 40.9356 41.9751C40.5102 42.5433 39.9793 42.982 39.3427 43.2913C38.7092 43.5977 38.0146 43.7509 37.2591 43.7509C36.4203 43.7509 35.7139 43.562 35.1398 43.1843C34.5687 42.8035 34.1641 42.2637 33.9262 41.5646C33.6882 40.8627 33.6496 40.0298 33.8102 39.0661C33.9292 38.3284 34.1403 37.6695 34.4437 37.0895C34.7501 36.5095 35.1249 36.0172 35.5681 35.6127C36.0143 35.2052 36.5095 34.8958 37.0539 34.6846C37.5982 34.4705 38.1693 34.3634 38.7672 34.3634C39.2699 34.3634 39.7279 34.4378 40.1414 34.5865C40.5548 34.7322 40.9088 34.9404 41.2033 35.2111C41.5007 35.4818 41.7283 35.803 41.8859 36.1749C42.0436 36.5467 42.1179 36.9572 42.109 37.4063H40.4225ZM42.7593 43.626L44.2763 34.4883H45.9316L44.6466 42.2384H48.6711L48.4391 43.626H42.7593Z" fill="white"/>
    <path d="M27.9662 50.8682C27.9334 50.6273 27.874 50.4116 27.7877 50.2213C27.7014 50.0279 27.5854 49.8643 27.4397 49.7305C27.2939 49.5936 27.1169 49.4895 26.9087 49.4181C26.7005 49.3468 26.4581 49.3111 26.1815 49.3111C25.6907 49.3111 25.2252 49.4345 24.7849 49.6814C24.3447 49.9283 23.9684 50.2912 23.6561 50.7701C23.3438 51.246 23.1311 51.826 23.0181 52.5101C22.9051 53.2002 22.911 53.7847 23.0359 54.2636C23.1609 54.7425 23.3899 55.1069 23.723 55.3567C24.0592 55.6036 24.4815 55.7271 24.9902 55.7271C25.4572 55.7271 25.881 55.6378 26.2618 55.4594C26.6425 55.2809 26.9578 55.0281 27.2077 54.7009C27.4605 54.3707 27.6211 53.984 27.6895 53.5408L28.0554 53.5988H25.5702L25.7933 52.3049H29.501L29.3136 53.4025C29.1857 54.1878 28.9076 54.8659 28.4793 55.437C28.0539 56.0052 27.523 56.4439 26.8864 56.7533C26.2529 57.0596 25.5583 57.2128 24.8028 57.2128C23.964 57.2128 23.2575 57.0239 22.6835 56.6462C22.1124 56.2654 21.7078 55.7256 21.4699 55.0266C21.2319 54.3246 21.1932 53.4917 21.3539 52.528C21.4728 51.7903 21.684 51.1315 21.9874 50.5514C22.2938 49.9714 22.6686 49.4791 23.1118 49.0746C23.558 48.6671 24.0532 48.3577 24.5975 48.1466C25.1419 47.9324 25.713 47.8253 26.3109 47.8253C26.8136 47.8253 27.2716 47.8997 27.6851 48.0484C28.0985 48.1941 28.4525 48.4024 28.747 48.673C29.0444 48.9437 29.272 49.265 29.4296 49.6368C29.5873 50.0086 29.6616 50.4191 29.6527 50.8682H27.9662ZM39.2087 52.6261C39.048 53.5958 38.7312 54.4227 38.2583 55.1069C37.7883 55.788 37.2143 56.3101 36.5361 56.6729C35.8609 57.0329 35.1336 57.2128 34.3543 57.2128C33.5363 57.2128 32.8343 57.0225 32.2483 56.6417C31.6624 56.258 31.24 55.7092 30.9812 54.9953C30.7254 54.2815 30.6808 53.4248 30.8473 52.4254C31.008 51.4587 31.3233 50.6317 31.7932 49.9446C32.2632 49.2575 32.8388 48.7325 33.5199 48.3696C34.2011 48.0067 34.9358 47.8253 35.724 47.8253C36.5361 47.8253 37.2321 48.0172 37.8121 48.4009C38.3951 48.7816 38.8145 49.3304 39.0703 50.0473C39.3291 50.7641 39.3752 51.6237 39.2087 52.6261ZM37.5801 52.4254C37.6902 51.7502 37.6798 51.1805 37.5489 50.7165C37.421 50.2525 37.1934 49.903 36.8662 49.668C36.539 49.43 36.136 49.3111 35.6571 49.3111C35.1395 49.3111 34.6606 49.4405 34.2204 49.6992C33.7832 49.955 33.4114 50.3298 33.105 50.8236C32.8016 51.3174 32.5934 51.9182 32.4803 52.6261C32.3614 53.3043 32.3688 53.8739 32.5026 54.335C32.6365 54.796 32.8685 55.1441 33.1987 55.379C33.5289 55.6111 33.9319 55.7271 34.4078 55.7271C34.9224 55.7271 35.3983 55.5992 35.8356 55.3433C36.2728 55.0875 36.6431 54.7142 36.9465 54.2234C37.2529 53.7327 37.4641 53.1333 37.5801 52.4254Z" fill="white"/>
    <path d="M92.0291 54.7227L81.3593 49.8813L70.6895 54.7227L81.3593 59.564L92.0291 54.7227ZM92.0291 54.7227V61.9847" stroke="white" stroke-width="1.70717" stroke-linecap="round" stroke-linejoin="round"/>
    <path d="M74.957 56.6589V63.1947C74.957 64.1577 75.6315 65.0813 76.8321 65.7623C78.0327 66.4432 79.661 66.8258 81.3589 66.8258C83.0568 66.8258 84.6852 66.4432 85.8857 65.7623C87.0863 65.0813 87.7608 64.1577 87.7608 63.1947V56.6589" stroke="white" stroke-width="1.70717" stroke-linecap="round" stroke-linejoin="round"/>
    <defs>
        <linearGradient id="paint0_linear_114_918" x1="56" y1="0" x2="56" y2="92" gradientUnits="userSpaceOnUse">
            <stop stop-color="#BAC5ED"/>
            <stop offset="1" stop-color="#8B94B2"/>
        </linearGradient>
    </defs>
</svg>
