<svg width="24" height="24" fill="none" xmlns="http://www.w3.org/2000/svg"><path d="M16.555 4.007l3.602 3.514c.267.26.48.57.624.91a2.747 2.747 0 010 2.149 2.81 2.81 0 01-.624.91l-2.643 2.578a2.875 2.875 0 01-.933.609 2.94 2.94 0 01-2.203 0 2.883 2.883 0 01-.933-.609l-.301-.293-6.558 6.397c-.332.324-.77.524-1.239.564l-.175.008H4c-.245 0-.481-.088-.664-.247a.968.968 0 01-.329-.614L3 19.768v-1.143c0-.458.165-.901.467-1.253l.119-.126.414-.404h2V14.89h2v-1.95l2.144-2.092-.301-.293a2.805 2.805 0 01-.624-.91 2.747 2.747 0 010-2.15c.145-.34.357-.65.624-.91l2.643-2.578c.267-.26.584-.467.933-.609a2.94 2.94 0 012.203 0c.349.142.666.348.933.609zM15 9.038h.01" stroke="#A8A8A8" stroke-width="2" stroke-linecap="round" stroke-linejoin="round"/></svg>