<svg width="88" height="88" fill="none" xmlns="http://www.w3.org/2000/svg"><path d="M88 44c0 24.3-19.7 44-44 44C19.702 88 0 68.3 0 44 0 19.702 19.702 0 44 0c24.3 0 44 19.702 44 44z" fill="#FFCC4D"/><path d="M28.111 44c3.375 0 6.111-6.02 6.111-13.445 0-7.425-2.736-13.444-6.11-13.444-3.376 0-6.112 6.02-6.112 13.444C22 37.981 24.736 44 28.111 44zm31.778 0c3.374 0 6.11-6.02 6.11-13.445 0-7.425-2.735-13.444-6.11-13.444-3.376 0-6.112 6.02-6.112 13.444 0 7.426 2.736 13.445 6.111 13.445zM44 53.778c-8.856 0-14.732-1.032-22-2.445-1.66-.32-4.889 0-4.889 4.89 0 9.777 11.232 22 26.89 22 15.653 0 26.888-12.223 26.888-22 0-4.89-3.229-5.212-4.889-4.89-7.267 1.413-13.144 2.445-22 2.445z" fill="#664500"/><path d="M22 56.222s7.333 2.445 22 2.445 22-2.445 22-2.445S61.111 66 44 66s-22-9.778-22-9.778z" fill="#fff"/></svg>