<svg width="88" height="88" fill="none" xmlns="http://www.w3.org/2000/svg"><path d="M88 44c0 24.3-19.7 44-44 44S0 68.3 0 44 19.7 0 44 0s44 19.7 44 44z" fill="#FFCC4D"/><path fill-rule="evenodd" clip-rule="evenodd" d="M3.1 27.545c.6.597 3.595 2.392 4.193 4.188.6 1.792 1.8 11.96 5.395 14.952 3.707 3.08 17.693 1.935 20.37.6 5.992-2.987 6.727-11.327 7.788-15.552.597-2.393 4.192-2.393 4.192-2.393s3.595 0 4.195 2.39c1.06 4.228 1.8 12.567 7.788 15.552 2.68 1.338 16.665 2.486 20.377-.594 3.59-2.993 4.788-13.16 5.388-14.956.594-1.792 3.594-3.587 4.192-4.184.603-.598.603-2.99 0-3.59-1.197-1.195-15.335-2.26-30.557-.598-3.038.332-4.193 1.195-11.386 1.195-7.187 0-8.347-.865-11.382-1.195-15.212-1.665-29.353-.6-30.553.595-.597.598-.597 2.993 0 3.59z" fill="#292F33"/><path d="M68.338 59.073A1.252 1.252 0 0066.75 59c-.097.073-9.805 7.25-21.75 7.25-11.915 0-21.655-7.177-21.75-7.25a1.259 1.259 0 00-1.587.073 1.25 1.25 0 00-.235 1.57C21.75 61.18 29.47 73.75 45 73.75s23.253-12.57 23.573-13.107c.307-.513.21-1.17-.235-1.57z" fill="#664500"/></svg>