<svg width="89" height="88" fill="none" xmlns="http://www.w3.org/2000/svg"><path d="M88.546 44c0 24.3-19.72 44-44.046 44S.453 68.3.453 44 20.173 0 44.5 0c24.326 0 44.046 19.7 44.046 44z" fill="#FFCC4D"/><path d="M59.983 57.743a1.227 1.227 0 00-1.348-.169l-9.788 4.889c-4.579 2.286-16.462 2.315-16.582 2.315a1.223 1.223 0 00-.611 2.28v.003h.002v.002c.174.098.375.154.587.16h17.15c6.503 0 10.005-5.342 10.95-8.17.156-.47.014-.985-.36-1.31zM76.314 39.11a2.443 2.443 0 01-1.96-.978c-6.462-8.607-14.831-8.797-15.186-8.8a2.45 2.45 0 01-2.425-2.456 2.44 2.44 0 012.44-2.432c.45 0 11.102.122 19.087 10.755a2.44 2.44 0 01-.49 3.422c-.44.33-.954.49-1.466.49zm-63.627 0a2.443 2.443 0 01-1.955-3.911c7.982-10.633 18.636-10.756 19.086-10.756a2.445 2.445 0 01.01 4.889c-.382.005-8.733.21-15.184 8.8a2.435 2.435 0 01-1.957.978zm26.667 3.413c.057-.127.145-.235.18-.377a2.445 2.445 0 00-1.78-2.965c-.44-.11-10.93-2.64-19.08 2.782a2.445 2.445 0 002.714 4.07c2.672-1.782 5.78-2.432 8.487-2.594-.022.186-.057.37-.057.56a4.893 4.893 0 004.894 4.889A4.893 4.893 0 0039.606 44a4.84 4.84 0 00-.252-1.476zm29.362-.003c.057-.127.145-.232.179-.371a2.442 2.442 0 00-1.779-2.965c-.44-.11-10.928-2.64-19.08 2.781a2.44 2.44 0 00-.677 3.39 2.443 2.443 0 002.038 1.088c.465 0 .937-.134 1.356-.41 2.672-1.782 5.777-2.43 8.489-2.591-.023.186-.06.366-.06.557a4.893 4.893 0 004.895 4.889A4.893 4.893 0 0068.97 44c0-.518-.103-1.01-.255-1.479z" fill="#664500"/></svg>